<svg width="260" height="140" viewBox="0 0 260 140" xmlns="http://www.w3.org/2000/svg"><rect x="0.5" y="0.5" width="259" height="139" rx="10" fill="#FFFFFF" stroke="#E2E8F0" stroke-width="1"/>
  <defs><marker id="arrowheadlight" markerWidth="6" markerHeight="6" refX="5" refY="3" orient="auto"><path d="M0,0 L6,3 L0,6 Z" fill="#64748B"/></marker></defs>
  <circle cx="83.2" cy="70.0" r="20" fill="#7C3AED" opacity="0.15"/>
  <circle cx="83.2" cy="70.0" r="20" fill="none" stroke="#7C3AED" stroke-width="1.6"/>
  <line x1="67.2" y1="56.0" x2="99.2" y2="56.0" stroke="#06B6D4" stroke-width="1.6" stroke-linecap="round"/><line x1="67.2" y1="64.0" x2="99.2" y2="64.0" stroke="#06B6D4" stroke-width="1.6" stroke-linecap="round"/><line x1="67.2" y1="72.0" x2="99.2" y2="72.0" stroke="#06B6D4" stroke-width="1.6" stroke-linecap="round"/><line x1="67.2" y1="80.0" x2="99.2" y2="80.0" stroke="#06B6D4" stroke-width="1.6" stroke-linecap="round"/>
  <path d="M105.2 70.0 h20" stroke="#64748B" stroke-width="1.4" marker-end="url(#arrowheadlight)"/>
  <circle cx="176.8" cy="70.0" r="20" fill="#2563EB" opacity="0.15"/>
    <circle cx="176.8" cy="70.0" r="20" fill="none" stroke="#2563EB" stroke-width="1.6"/>
    <path d="M170.8 65.0 h-5 v10 h5 l7 6 v-22 z" fill="#2563EB"/>
    <path d="M184.8 64.0 q5 6 0 12" fill="none" stroke="#2563EB" stroke-width="1.6" stroke-linecap="round">
      <animate attributeName="opacity" values="0.3;1;0.3" dur="1.6s" repeatCount="indefinite"/>
    </path>
    <path d="M189.8 61.0 q8 9 0 18" fill="none" stroke="#2563EB" stroke-width="1.6" stroke-linecap="round">
      <animate attributeName="opacity" values="0.15;0.7;0.15" dur="1.6s" begin="0.3s" repeatCount="indefinite"/>
    </path></svg>